<?xml version="1.0" encoding="utf-8"?>
<!-- Generator: Adobe Illustrator 15.0.0, SVG Export Plug-In . SVG Version: 6.00 Build 0)  -->
<!DOCTYPE svg PUBLIC "-//W3C//DTD SVG 1.1//EN" "http://www.w3.org/Graphics/SVG/1.1/DTD/svg11.dtd">
<svg version="1.1" id="Calque_1" xmlns="http://www.w3.org/2000/svg" xmlns:xlink="http://www.w3.org/1999/xlink" x="0px" y="0px"
	 width="468.667px" height="471.333px" viewBox="72.473 137.445 468.667 471.333"
	 enable-background="new 72.473 137.445 468.667 471.333" xml:space="preserve">
<path fill="#9E9E9E" stroke="#000000" stroke-miterlimit="10" d="M306.641,142.763c127.715,0,231.25,103.534,231.25,231.25
	c0,127.717-103.535,231.25-231.25,231.25c-127.716,0-231.25-103.533-231.25-231.25C75.391,246.297,178.924,142.763,306.641,142.763z
	"/>
<radialGradient id="SVGID_1_" cx="306.6409" cy="373.4683" r="226.8251" gradientUnits="userSpaceOnUse">
	<stop  offset="0" style="stop-color:#000000"/>
	<stop  offset="0.0765" style="stop-color:#272727"/>
	<stop  offset="0.249" style="stop-color:#8C8C8C"/>
	<stop  offset="0.4364" style="stop-color:#FFFFFF"/>
	<stop  offset="0.4827" style="stop-color:#A8A8A8"/>
	<stop  offset="0.5249" style="stop-color:#606060"/>
	<stop  offset="0.5596" style="stop-color:#2C2C2C"/>
	<stop  offset="0.5856" style="stop-color:#0C0C0C"/>
	<stop  offset="0.6" style="stop-color:#000000"/>
	<stop  offset="0.6157" style="stop-color:#141414"/>
	<stop  offset="0.6615" style="stop-color:#4B4B4B"/>
	<stop  offset="0.701" style="stop-color:#737373"/>
	<stop  offset="0.7323" style="stop-color:#8B8B8B"/>
	<stop  offset="0.7515" style="stop-color:#949494"/>
	<stop  offset="0.9219" style="stop-color:#2B2B2B"/>
	<stop  offset="1" style="stop-color:#000000"/>
</radialGradient>
<ellipse fill="url(#SVGID_1_)" stroke="#000000" stroke-miterlimit="10" cx="306.641" cy="373.468" rx="226.18" ry="227.469"/>
<path stroke="#000000" stroke-miterlimit="10" d="M384.12,240.333c-19.036-5.276-152.896-5.277-154.358,0
	c-10.25,0-77.18,115.925-77.18,133.679c0,17.754,66.93,133.679,77.18,133.679c3.589,7.791,137.445,7.791,154.358,0
	c15.296-7.607,82.229-123.535,77.182-133.679C458.906,355.256,391.978,239.331,384.12,240.333z"/>
<radialGradient id="SVGID_2_" cx="306.9426" cy="374.0122" r="144.3898" gradientUnits="userSpaceOnUse">
	<stop  offset="0.0061" style="stop-color:#000000"/>
	<stop  offset="0.3088" style="stop-color:#020202"/>
	<stop  offset="0.4462" style="stop-color:#090909"/>
	<stop  offset="0.5501" style="stop-color:#161616"/>
	<stop  offset="0.6372" style="stop-color:#282828"/>
	<stop  offset="0.7138" style="stop-color:#404040"/>
	<stop  offset="0.7831" style="stop-color:#5D5D5D"/>
	<stop  offset="0.8468" style="stop-color:#808080"/>
	<stop  offset="0.9062" style="stop-color:#A8A8A8"/>
	<stop  offset="0.9599" style="stop-color:#D4D4D4"/>
	<stop  offset="1" style="stop-color:#FAFAFA"/>
</radialGradient>
<polygon fill="url(#SVGID_2_)" stroke="#000000" stroke-miterlimit="10" points="229.762,507.691 152.582,374.013 229.762,240.333 
	384.12,240.333 461.302,374.013 384.12,507.691 "/>
</svg>
